<svg width="82" height="14" viewBox="0 0 82 14" fill="none" xmlns="http://www.w3.org/2000/svg">
<path fill-rule="evenodd" clip-rule="evenodd" d="M14.4208 7.61525L13.7112 6.9056V12.2573C13.7112 13.0145 13.0966 13.629 12.3394 13.629H9.87025H5.48064H3.01148C2.64767 13.629 2.29876 13.4845 2.04151 13.2273C1.78425 12.97 1.63973 12.6211 1.63973 12.2573V6.9056L0.930079 7.61525C0.82664 7.71525 0.688063 7.77063 0.544194 7.76945C0.400325 7.76826 0.262676 7.71062 0.160894 7.60894C0.0591118 7.50725 0.00134058 7.36966 2.30381e-05 7.22579C-0.00129451 7.08192 0.0539471 6.94329 0.15385 6.83976L6.51147 0.48214C6.66432 0.329283 6.84579 0.20803 7.04551 0.125304C7.24522 0.0425784 7.45927 0 7.67545 0C7.89162 0 8.10567 0.0425784 8.30539 0.125304C8.5051 0.20803 8.68657 0.329283 8.83942 0.48214L15.1963 6.83976C15.2502 6.88999 15.2935 6.95057 15.3234 7.01787C15.3534 7.08518 15.3696 7.15784 15.3709 7.23151C15.3722 7.30519 15.3586 7.37837 15.331 7.44669C15.3034 7.51502 15.2623 7.57708 15.2102 7.62918C15.1581 7.68129 15.0961 7.72236 15.0277 7.74996C14.9594 7.77756 14.8862 7.79111 14.8126 7.78981C14.7389 7.78851 14.6662 7.77238 14.5989 7.74239C14.5316 7.7124 14.471 7.66916 14.4208 7.61525ZM3.32219 8.49456C3.92889 6.90863 5.64826 5.76431 7.67588 5.76431C9.70228 5.76431 11.4208 6.90756 12.0283 8.49208C12.0773 8.62048 12.0773 8.75882 12.0283 8.88688C11.4221 10.4728 9.70228 11.6171 7.67507 11.6171C5.64867 11.6171 3.9297 10.4739 3.3226 8.88936C3.27357 8.76122 3.27357 8.6227 3.3226 8.49456H3.32219ZM9.81603 8.69072C9.81603 9.18462 9.59051 9.65829 9.18908 10.0075C8.78764 10.3568 8.24319 10.553 7.67547 10.553C7.10776 10.553 6.5633 10.3568 6.16187 10.0075C5.76044 9.65829 5.53492 9.18462 5.53492 8.69072C5.53492 8.19682 5.76044 7.72314 6.16187 7.3739C6.5633 7.02466 7.10776 6.82846 7.67547 6.82846C8.24319 6.82846 8.78764 7.02466 9.18908 7.3739C9.59051 7.72314 9.81603 8.19682 9.81603 8.69072ZM7.67544 10.1539C8.06351 10.1539 8.43568 9.99976 8.71008 9.72535C8.98448 9.45095 9.13864 9.07878 9.13864 8.69071C9.13864 8.30265 8.98448 7.93047 8.71008 7.65607C8.43568 7.38167 8.06351 7.22751 7.67544 7.22751C7.28737 7.22751 6.9152 7.38167 6.6408 7.65607C6.36639 7.93047 6.21224 8.30265 6.21224 8.69071C6.21224 9.07878 6.36639 9.45095 6.6408 9.72535C6.9152 9.99976 7.28737 10.1539 7.67544 10.1539Z" fill="url(#paint0_linear_1_57)"/>
<path d="M24.804 3.88636V5.67614H19V3.88636H24.804ZM20.451 13.7045V2.95952C20.451 2.29901 20.5874 1.74929 20.8601 1.31037C21.1371 0.871449 21.5078 0.543324 21.9723 0.325995C22.4368 0.108665 22.9524 0 23.5192 0C23.9197 0 24.2756 0.0319605 24.5866 0.0958815C24.8977 0.159802 25.1278 0.21733 25.277 0.268467L24.8168 2.05824C24.7188 2.02841 24.5952 1.99858 24.446 1.96875C24.2969 1.93466 24.1307 1.91761 23.9474 1.91761C23.517 1.91761 23.2124 2.02202 23.0334 2.23082C22.8587 2.43537 22.7713 2.7294 22.7713 3.11293V13.7045H20.451Z" fill="#4A4F59"/>
<path d="M28.21 0.613637V13.7045H25.8961V0.613637H28.21Z" fill="#4A4F59"/>
<path d="M32.6948 13.9027C32.0726 13.9027 31.5122 13.7919 31.0137 13.5703C30.5193 13.3445 30.1273 13.0121 29.8375 12.5732C29.552 12.1342 29.4093 11.593 29.4093 10.9496C29.4093 10.3956 29.5115 9.9375 29.7161 9.57528C29.9206 9.21307 30.1997 8.9233 30.5534 8.70597C30.9071 8.48864 31.3056 8.32458 31.7487 8.21378C32.1962 8.09872 32.6585 8.01563 33.1358 7.96449C33.7111 7.90483 34.1777 7.85156 34.5357 7.80469C34.8936 7.75355 35.1536 7.67685 35.3155 7.57457C35.4817 7.46804 35.5648 7.30398 35.5648 7.08239V7.04404C35.5648 6.5625 35.422 6.18963 35.1365 5.92543C34.851 5.66122 34.4398 5.52912 33.9029 5.52912C33.3361 5.52912 32.8865 5.6527 32.5541 5.89986C32.226 6.14702 32.0044 6.43892 31.8894 6.77557L29.7289 6.46875C29.8993 5.87216 30.1806 5.37358 30.5726 4.97301C30.9647 4.56818 31.4441 4.26563 32.0108 4.06534C32.5776 3.8608 33.204 3.75852 33.8901 3.75852C34.3631 3.75852 34.834 3.81392 35.3027 3.92472C35.7715 4.03551 36.1997 4.21875 36.5875 4.47443C36.9753 4.72585 37.2864 5.06889 37.5208 5.50355C37.7594 5.93821 37.8787 6.48153 37.8787 7.13352V13.7045H35.6543V12.3558H35.5776C35.437 12.6286 35.2388 12.8842 34.9831 13.1229C34.7317 13.3572 34.4142 13.5469 34.0307 13.6918C33.6514 13.8324 33.2061 13.9027 32.6948 13.9027ZM33.2956 12.2024C33.7601 12.2024 34.1628 12.1108 34.5037 11.9276C34.8446 11.7401 35.1067 11.4929 35.2899 11.1861C35.4774 10.8793 35.5712 10.5447 35.5712 10.1825V9.02557C35.4987 9.08523 35.3752 9.14062 35.2004 9.19176C35.03 9.2429 34.8382 9.28764 34.6252 9.32599C34.4121 9.36435 34.2012 9.39844 33.9923 9.42827C33.7835 9.4581 33.6024 9.48367 33.449 9.50497C33.1039 9.55185 32.7949 9.62855 32.5222 9.73509C32.2495 9.84162 32.0343 9.99077 31.8766 10.1825C31.7189 10.37 31.6401 10.6129 31.6401 10.9112C31.6401 11.3374 31.7956 11.6591 32.1067 11.8764C32.4178 12.0938 32.8141 12.2024 33.2956 12.2024Z" fill="#4A4F59"/>
<path d="M44.3881 3.88636V5.67614H38.7439V3.88636H44.3881ZM40.1374 1.53409H42.4513V10.7514C42.4513 11.0625 42.4982 11.3011 42.592 11.4673C42.69 11.6293 42.8178 11.7401 42.9755 11.7997C43.1331 11.8594 43.3079 11.8892 43.4996 11.8892C43.6445 11.8892 43.7766 11.8786 43.8959 11.8572C44.0195 11.8359 44.1133 11.8168 44.1772 11.7997L44.5671 13.6087C44.4435 13.6513 44.2667 13.6982 44.0366 13.7493C43.8107 13.8004 43.5337 13.8303 43.2056 13.8388C42.626 13.8558 42.104 13.7685 41.6395 13.5767C41.1751 13.3807 40.8064 13.0781 40.5337 12.669C40.2652 12.2599 40.1331 11.7486 40.1374 11.1349V1.53409Z" fill="#4A4F59"/>
<path d="M48.1449 7.95172V13.7046H45.831V0.613647H48.0937V5.5547H48.2088C48.4389 5.00072 48.7947 4.56393 49.2763 4.24433C49.7621 3.92047 50.38 3.75853 51.13 3.75853C51.8118 3.75853 52.4062 3.90129 52.9133 4.1868C53.4205 4.47231 53.8125 4.88993 54.0895 5.43964C54.3707 5.98936 54.5114 6.66052 54.5114 7.45314V13.7046H52.1974V7.81109C52.1974 7.15058 52.027 6.63708 51.6861 6.27061C51.3494 5.89987 50.8764 5.7145 50.267 5.7145C49.858 5.7145 49.4915 5.80399 49.1676 5.98297C48.848 6.15768 48.5966 6.41123 48.4133 6.74362C48.2344 7.07601 48.1449 7.4787 48.1449 7.95172Z" fill="#8C929F"/>
<path d="M62.4078 9.57529V3.88637H64.7218V13.7046H62.4781V11.9595H62.3759C62.1543 12.5092 61.7899 12.9588 61.2828 13.3083C60.78 13.6577 60.16 13.8324 59.4228 13.8324C58.7793 13.8324 58.2104 13.6896 57.7161 13.4041C57.226 13.1144 56.8425 12.6946 56.5655 12.1449C56.2885 11.5909 56.15 10.9219 56.15 10.1378V3.88637H58.4639V9.77984C58.4639 10.402 58.6344 10.8963 58.9753 11.2628C59.3162 11.6293 59.7637 11.8125 60.3176 11.8125C60.6585 11.8125 60.9888 11.7294 61.3084 11.5632C61.628 11.397 61.8901 11.1499 62.0946 10.8217C62.3034 10.4894 62.4078 10.0739 62.4078 9.57529Z" fill="#8C929F"/>
<path d="M68.6951 7.95172V13.7046H66.3812V3.88637H68.5928V5.5547H68.7079C68.9338 5.00498 69.2938 4.56819 69.7882 4.24433C70.2867 3.92047 70.9025 3.75853 71.6355 3.75853C72.313 3.75853 72.9032 3.90342 73.4061 4.19319C73.9132 4.48297 74.3052 4.90271 74.5822 5.45243C74.8634 6.00214 75.0019 6.66905 74.9977 7.45314V13.7046H72.6838V7.81109C72.6838 7.15484 72.5133 6.64135 72.1724 6.27061C71.8357 5.89987 71.3691 5.7145 70.7725 5.7145C70.3677 5.7145 70.0076 5.80399 69.6923 5.98297C69.3812 6.15768 69.1362 6.41123 68.9572 6.74362C68.7825 7.07601 68.6951 7.4787 68.6951 7.95172Z" fill="#8C929F"/>
<path d="M81.5326 3.88637V5.67615H75.8885V3.88637H81.5326ZM77.2819 1.5341H79.5959V10.7514C79.5959 11.0625 79.6427 11.3011 79.7365 11.4673C79.8345 11.6293 79.9623 11.7401 80.12 11.7997C80.2777 11.8594 80.4524 11.8892 80.6442 11.8892C80.789 11.8892 80.9211 11.8786 81.0405 11.8573C81.164 11.8359 81.2578 11.8168 81.3217 11.7997L81.7116 13.6087C81.588 13.6513 81.4112 13.6982 81.1811 13.7493C80.9552 13.8004 80.6782 13.8303 80.3501 13.8388C79.7706 13.8558 79.2486 13.7685 78.7841 13.5767C78.3196 13.3807 77.951 13.0781 77.6782 12.669C77.4098 12.26 77.2777 11.7486 77.2819 11.135V1.5341Z" fill="#8C929F"/>
<defs>
<linearGradient id="paint0_linear_1_57" x1="7.68547" y1="0" x2="7.68547" y2="13.629" gradientUnits="userSpaceOnUse">
<stop stop-color="#A9ACFF"/>
<stop offset="1" stop-color="#4B4EFC"/>
</linearGradient>
</defs>
</svg>
