<svg width="16" height="14" viewBox="0 0 16 14" fill="none" xmlns="http://www.w3.org/2000/svg">
<path fill-rule="evenodd" clip-rule="evenodd" d="M14.4208 7.61525L13.7112 6.9056V12.2573C13.7112 13.0145 13.0966 13.629 12.3394 13.629H9.87025H5.48064H3.01148C2.64767 13.629 2.29876 13.4845 2.04151 13.2273C1.78425 12.97 1.63973 12.6211 1.63973 12.2573V6.9056L0.930079 7.61525C0.82664 7.71525 0.688063 7.77063 0.544194 7.76945C0.400325 7.76826 0.262676 7.71062 0.160894 7.60894C0.0591118 7.50725 0.00134059 7.36966 2.30394e-05 7.22579C-0.00129451 7.08192 0.0539471 6.94329 0.15385 6.83976L6.51147 0.48214C6.66432 0.329283 6.84579 0.20803 7.04551 0.125304C7.24522 0.0425784 7.45927 0 7.67545 0C7.89162 0 8.10567 0.0425784 8.30539 0.125304C8.5051 0.20803 8.68657 0.329283 8.83942 0.48214L15.1963 6.83976C15.2502 6.88999 15.2935 6.95057 15.3234 7.01787C15.3534 7.08518 15.3696 7.15784 15.3709 7.23151C15.3722 7.30519 15.3586 7.37837 15.331 7.44669C15.3034 7.51502 15.2623 7.57708 15.2102 7.62918C15.1581 7.68129 15.0961 7.72236 15.0277 7.74996C14.9594 7.77756 14.8862 7.79111 14.8126 7.78981C14.7389 7.78851 14.6662 7.77238 14.5989 7.74239C14.5316 7.7124 14.471 7.66916 14.4208 7.61525ZM3.32219 8.49456C3.92889 6.90863 5.64826 5.76431 7.67588 5.76431C9.70228 5.76431 11.4208 6.90756 12.0283 8.49208C12.0773 8.62048 12.0773 8.75882 12.0283 8.88688C11.4221 10.4728 9.70228 11.6171 7.67507 11.6171C5.64867 11.6171 3.9297 10.4739 3.3226 8.88936C3.27357 8.76122 3.27357 8.6227 3.3226 8.49456H3.32219ZM9.81603 8.69072C9.81603 9.18462 9.59051 9.65829 9.18908 10.0075C8.78764 10.3568 8.24319 10.553 7.67547 10.553C7.10776 10.553 6.5633 10.3568 6.16187 10.0075C5.76044 9.65829 5.53492 9.18462 5.53492 8.69072C5.53492 8.19682 5.76044 7.72314 6.16187 7.3739C6.5633 7.02466 7.10776 6.82846 7.67547 6.82846C8.24319 6.82846 8.78764 7.02466 9.18908 7.3739C9.59051 7.72314 9.81603 8.19682 9.81603 8.69072ZM7.67544 10.1539C8.06351 10.1539 8.43568 9.99976 8.71008 9.72535C8.98448 9.45095 9.13864 9.07878 9.13864 8.69071C9.13864 8.30265 8.98448 7.93047 8.71008 7.65607C8.43568 7.38167 8.06351 7.22751 7.67544 7.22751C7.28737 7.22751 6.9152 7.38167 6.6408 7.65607C6.36639 7.93047 6.21224 8.30265 6.21224 8.69071C6.21224 9.07878 6.36639 9.45095 6.6408 9.72535C6.9152 9.99976 7.28737 10.1539 7.67544 10.1539Z" fill="url(#paint0_linear_1_47)"/>
<defs>
<linearGradient id="paint0_linear_1_47" x1="7.68547" y1="0" x2="7.68547" y2="13.629" gradientUnits="userSpaceOnUse">
<stop stop-color="#A9ACFF"/>
<stop offset="1" stop-color="#4B4EFC"/>
</linearGradient>
</defs>
</svg>
